<svg xmlns="http://www.w3.org/2000/svg" viewBox="0 0 110 128" fill="none">
  <defs>
    <linearGradient id="nr-top" x1="0%" y1="0%" x2="100%" y2="50%">
      <stop offset="0%" style="stop-color:#5eead4"/><stop offset="100%" style="stop-color:#0d9488"/>
    </linearGradient>
    <linearGradient id="nr-front" x1="0%" y1="0%" x2="100%" y2="0%">
      <stop offset="0%" style="stop-color:#44403c"/><stop offset="100%" style="stop-color:#292524"/>
    </linearGradient>
    <linearGradient id="nr-right" x1="0%" y1="0%" x2="100%" y2="0%">
      <stop offset="0%" style="stop-color:#292524"/><stop offset="100%" style="stop-color:#1c1917"/>
    </linearGradient>
  </defs>
  <ellipse cx="56" cy="118" rx="34" ry="5" fill="#000" opacity="0.22"/>
  <path d="M28 34 L74 34 L88 22 L42 22 Z" fill="url(#nr-top)" stroke="#99f6e4" stroke-width="0.8" opacity="0.85"/>
  <path d="M74 34 L88 22 L88 112 L74 124 Z" fill="url(#nr-right)" stroke="#134e4a"/>
  <path d="M28 34 L74 34 L74 124 L28 124 Z" fill="url(#nr-front)" stroke="#0d9488" stroke-width="1"/>
  <rect x="32" y="40" width="38" height="42" rx="3" fill="#0c0a09" stroke="#14b8a6"/>
  <path d="M36 62 L50 50 L66 56 L54 68 Z" fill="#134e4a" stroke="#5eead4" stroke-width="0.8"/>
  <path d="M34 56 L70 52" stroke="#f97316" stroke-width="2" opacity="0.85"/>
  <path d="M32 62 L72 58" stroke="#f97316" stroke-width="1.2" opacity="0.5"/>
  <circle cx="50" cy="58" r="4.5" fill="#1e293b" stroke="#94a3b8"/>
  <rect x="36" y="88" width="30" height="14" rx="2" fill="#1c1917" stroke="#57534e"/>
  <ellipse cx="51" cy="94" rx="12" ry="5" fill="#292524" stroke="#78716c"/>
  <rect x="46.5" y="106" width="9" height="14" rx="1.5" fill="#57534e"/>
</svg>
