<svg xmlns="http://www.w3.org/2000/svg" viewBox="0 0 100 130" fill="none">
  <defs>
    <linearGradient id="pp-body" x1="0%" y1="0%" x2="0%" y2="100%">
      <stop offset="0%" style="stop-color:#44403c"/>
      <stop offset="100%" style="stop-color:#292524"/>
    </linearGradient>
  </defs>
  <rect x="12" y="8" width="76" height="114" rx="6" fill="url(#pp-body)" stroke="#57534e" stroke-width="2"/>
  <rect x="22" y="18" width="56" height="44" rx="3" fill="#0c0a09" stroke="#0d9488" stroke-width="1.5"/>
  <rect x="26" y="22" width="8" height="8" fill="#14b8a6"/>
  <rect x="38" y="22" width="8" height="8" fill="#fbbf24"/>
  <rect x="50" y="22" width="8" height="8" fill="#f472b6"/>
  <rect x="62" y="22" width="8" height="8" fill="#14b8a6"/>
  <rect x="26" y="34" width="8" height="8" fill="#f472b6"/>
  <rect x="38" y="34" width="8" height="8" fill="#14b8a6"/>
  <rect x="50" y="34" width="8" height="8" fill="#fbbf24"/>
  <rect x="62" y="34" width="8" height="8" fill="#fbbf24"/>
  <rect x="26" y="46" width="44" height="6" fill="#44403c"/>
  <circle cx="42" cy="86" r="12" fill="#1c1917" stroke="#57534e" stroke-width="2"/>
  <circle cx="42" cy="86" r="5" fill="#44403c"/>
  <circle cx="68" cy="78" r="4" fill="#dc2626"/>
  <circle cx="68" cy="92" r="4" fill="#dc2626"/>
  <rect x="31" y="70" width="18" height="4" rx="1" fill="#57534e"/>
</svg>
