<svg xmlns="http://www.w3.org/2000/svg" viewBox="0 0 110 128" fill="none">
  <defs>
    <linearGradient id="pp-top" x1="0%" y1="0%" x2="100%" y2="100%">
      <stop offset="0%" style="stop-color:#78716c"/>
      <stop offset="100%" style="stop-color:#57534e"/>
    </linearGradient>
    <linearGradient id="pp-front" x1="0%" y1="0%" x2="100%" y2="0%">
      <stop offset="0%" style="stop-color:#57534e"/><stop offset="100%" style="stop-color:#44403c"/>
    </linearGradient>
    <linearGradient id="pp-right" x1="0%" y1="0%" x2="100%" y2="0%">
      <stop offset="0%" style="stop-color:#44403c"/><stop offset="100%" style="stop-color:#292524"/>
    </linearGradient>
    <linearGradient id="pp-marq" x1="0%" y1="0%" x2="0%" y2="100%">
      <stop offset="0%" style="stop-color:#0f766e"/><stop offset="100%" style="stop-color:#134e4a"/>
    </linearGradient>
  </defs>
  <ellipse cx="56" cy="118" rx="34" ry="5" fill="#000" opacity="0.22"/>
  <path d="M28 34 L74 34 L88 22 L42 22 Z" fill="url(#pp-top)" stroke="#a8a29e" stroke-width="0.8"/>
  <path d="M74 34 L88 22 L88 112 L74 124 Z" fill="url(#pp-right)" stroke="#57534e" stroke-width="1"/>
  <path d="M28 34 L74 34 L74 124 L28 124 Z" fill="url(#pp-front)" stroke="#57534e" stroke-width="1"/>
  <rect x="32" y="40" width="38" height="44" rx="3" fill="#0c0a09" stroke="#14b8a6" stroke-width="1.2"/>
  <rect x="36" y="44" width="8" height="8" fill="#14b8a6"/>
  <rect x="46" y="44" width="8" height="8" fill="#fbbf24"/>
  <rect x="56" y="44" width="8" height="8" fill="#f472b6"/>
  <rect x="36" y="54" width="8" height="8" fill="#f472b6"/>
  <rect x="46" y="54" width="8" height="8" fill="#14b8a6"/>
  <rect x="56" y="54" width="8" height="8" fill="#fbbf24"/>
  <rect x="34" y="88" width="36" height="8" rx="1" fill="url(#pp-marq)" stroke="#0d9488"/>
  <ellipse cx="44" cy="108" rx="9" ry="9" fill="#292524" stroke="#78716c"/>
  <circle cx="44" cy="108" r="4" fill="#44403c"/>
  <circle cx="62" cy="100" r="3.5" fill="#b91c1c"/>
  <circle cx="62" cy="114" r="3.5" fill="#b91c1c"/>
</svg>
