<svg xmlns="http://www.w3.org/2000/svg" viewBox="0 0 110 128" fill="none">
  <defs>
    <linearGradient id="rh-top" x1="0%" y1="0%" x2="100%" y2="100%">
      <stop offset="0%" style="stop-color:#a78bfa"/><stop offset="100%" style="stop-color:#6d28d9"/>
    </linearGradient>
    <linearGradient id="rh-front" x1="0%" y1="0%" x2="0%" y2="100%">
      <stop offset="0%" style="stop-color:#57534e"/><stop offset="100%" style="stop-color:#44403c"/>
    </linearGradient>
    <linearGradient id="rh-right" x1="0%" y1="0%" x2="100%" y2="0%">
      <stop offset="0%" style="stop-color:#44403c"/><stop offset="100%" style="stop-color:#2e1065"/>
    </linearGradient>
  </defs>
  <ellipse cx="56" cy="118" rx="34" ry="5" fill="#000" opacity="0.22"/>
  <path d="M28 34 L74 34 L88 22 L42 22 Z" fill="url(#rh-top)" stroke="#c4b5fd" stroke-width="0.8"/>
  <path d="M74 34 L88 22 L88 112 L74 124 Z" fill="url(#rh-right)" stroke="#5b21b6"/>
  <path d="M28 34 L74 34 L74 124 L28 124 Z" fill="url(#rh-front)" stroke="#7c3aed" stroke-width="1"/>
  <rect x="32" y="40" width="38" height="40" rx="3" fill="#1c1917" stroke="#a78bfa"/>
  <rect x="36" y="54" width="4" height="10" rx="0.5" fill="#c084fc"/>
  <rect x="44" y="48" width="4" height="16" rx="0.5" fill="#a78bfa"/>
  <rect x="52" y="50" width="4" height="14" rx="0.5" fill="#e879f9"/>
  <rect x="60" y="46" width="4" height="18" rx="0.5" fill="#c084fc"/>
  <path d="M40 44 Q51 36 62 44" stroke="#fde047" stroke-width="1.5" fill="none"/>
  <circle cx="64" cy="42" r="2.5" fill="#fde047"/>
  <rect x="34" y="86" width="36" height="10" rx="1" fill="#292524" stroke="#57534e"/>
  <circle cx="46" cy="108" r="8" fill="#292524" stroke="#78716c"/>
  <circle cx="60" cy="108" r="8" fill="#292524" stroke="#78716c"/>
</svg>
