<svg xmlns="http://www.w3.org/2000/svg" viewBox="0 0 110 128" fill="none">
  <defs>
    <linearGradient id="tp-top" x1="20%" y1="0%" x2="80%" y2="100%">
      <stop offset="0%" style="stop-color:#78716c"/><stop offset="100%" style="stop-color:#57534e"/>
    </linearGradient>
    <linearGradient id="tp-front" x1="0%" y1="0%" x2="0%" y2="100%">
      <stop offset="0%" style="stop-color:#57534e"/><stop offset="100%" style="stop-color:#3f3a36"/>
    </linearGradient>
    <linearGradient id="tp-right" x1="0%" y1="0%" x2="100%" y2="0%">
      <stop offset="0%" style="stop-color:#44403c"/><stop offset="100%" style="stop-color:#1c1917"/>
    </linearGradient>
  </defs>
  <ellipse cx="56" cy="118" rx="34" ry="5" fill="#000" opacity="0.22"/>
  <path d="M28 34 L74 34 L88 22 L42 22 Z" fill="url(#tp-top)" stroke="#a8a29e" stroke-width="0.8"/>
  <path d="M74 34 L88 22 L88 112 L74 124 Z" fill="url(#tp-right)" stroke="#44403c"/>
  <path d="M28 34 L74 34 L74 124 L28 124 Z" fill="url(#tp-front)" stroke="#57534e"/>
  <path d="M34 46 L68 46 L51 72 Z" fill="#1c1917" stroke="#ca8a04" stroke-width="1.2"/>
  <circle cx="51" cy="58" r="5.5" fill="#fbbf24" stroke="#ca8a04"/>
  <circle cx="41" cy="66" r="2.5" fill="#64748b"/>
  <circle cx="61" cy="66" r="2.5" fill="#64748b"/>
  <rect x="34" y="78" width="36" height="6" rx="2" fill="#0d9488" opacity="0.35"/>
  <rect x="34" y="90" width="36" height="14" rx="2" fill="#292524" stroke="#57534e"/>
  <circle cx="46" cy="97" r="5" fill="#44403c" stroke="#78716c"/>
  <circle cx="60" cy="97" r="5" fill="#44403c" stroke="#78716c"/>
  <path d="M51 38 L51 46" stroke="#fbbf24" stroke-width="1.5"/>
</svg>
