<svg xmlns="http://www.w3.org/2000/svg" viewBox="0 0 110 128" fill="none">
  <defs>
    <linearGradient id="vx-top" x1="0%" y1="0%" x2="100%" y2="100%">
      <stop offset="0%" style="stop-color:#2dd4bf"/><stop offset="100%" style="stop-color:#0f766e"/>
    </linearGradient>
    <linearGradient id="vx-front" x1="0%" y1="0%" x2="100%" y2="100%">
      <stop offset="0%" style="stop-color:#44403c"/><stop offset="100%" style="stop-color:#1c1917"/>
    </linearGradient>
    <linearGradient id="vx-right" x1="0%" y1="0%" x2="100%" y2="0%">
      <stop offset="0%" style="stop-color:#292524"/><stop offset="100%" style="stop-color:#042f2e"/>
    </linearGradient>
  </defs>
  <ellipse cx="56" cy="118" rx="34" ry="5" fill="#000" opacity="0.22"/>
  <path d="M28 34 L74 34 L88 22 L42 22 Z" fill="url(#vx-top)" stroke="#5eead4" stroke-width="0.8"/>
  <path d="M74 34 L88 22 L88 112 L74 124 Z" fill="url(#vx-right)" stroke="#134e4a"/>
  <path d="M28 34 L74 34 L74 124 L28 124 Z" fill="url(#vx-front)" stroke="#14b8a6" stroke-width="1"/>
  <rect x="32" y="40" width="38" height="40" rx="2" fill="#0c0a09" stroke="#2dd4bf"/>
  <polygon points="51,44 64,58 38,58" fill="none" stroke="#5eead4" stroke-width="1.2"/>
  <polygon points="51,54 60,66 42,66" fill="none" stroke="#fbbf24" stroke-width="1"/>
  <line x1="36" y1="62" x2="66" y2="50" stroke="#a78bfa" stroke-width="0.8" opacity="0.9"/>
  <circle cx="51" cy="58" r="3.5" fill="none" stroke="#14b8a6" stroke-width="1"/>
  <rect x="36" y="86" width="30" height="16" rx="2" fill="#292524" stroke="#0d9488"/>
  <path d="M42 98 L51 90 L60 98" fill="none" stroke="#5eead4" stroke-width="1.5" stroke-linejoin="round"/>
  <circle cx="46" cy="108" r="4.5" fill="#44403c" stroke="#57534e"/>
  <circle cx="58" cy="108" r="4.5" fill="#44403c" stroke="#57534e"/>
</svg>
